# xmcd CD database file
#
# Track frame offsets:
#	182
#	27170
#	48860
#	69142
#	90077
#	107837
#	124592
#	143917
#	174345
#	195010
#	221765
#	241377
#	260195
#	283340
#	304497
#
# Disc length: 4417 seconds
#
# Revision: 0
# Processed by: cddbd v1.5PL3 Copyright (c) Steve Scherf et al.
# Submitted via: CDex 1.50
#
DISCID=d0113f0f
DTITLE=Various Artist - Chemical Generation vol2 disc2
DYEAR=2000
DGENRE=Trance
TTITLE0=Intoxication
TTITLE1=Crazy Styles
TTITLE2=Warpde Reality
TTITLE3=Back To The Top
TTITLE4=Future Dimensions
TTITLE5=The Hustler
TTITLE6=Terranova
TTITLE7=Waves Of Desire
TTITLE8=De Sensitize
TTITLE9=The Awakening
TTITLE10=Point Zero
TTITLE11=Lemonade Ray Gun
TTITLE12=Product Of Society
TTITLE13=Acid Frenzy
TTITLE14=Now Control
EXTD=YEAR: 2000
EXTT0=
EXTT1=
EXTT2=
EXTT3=
EXTT4=
EXTT5=
EXTT6=
EXTT7=
EXTT8=
EXTT9=
EXTT10=
EXTT11=
EXTT12=
EXTT13=
EXTT14=
PLAYORDER=
